
        <svg xmlns="http://www.w3.org/2000/svg" xmlns:xlink="http://www.w3.org/1999/xlink" version="1.1" width="3230.769230769231" height="692.6796837802854" viewBox="0 0 3230.769230769231 692.6796837802854">
			
			<g transform="scale(11.538461538461538) translate(10, 10)">
				<defs id="SvgjsDefs11571"/><g id="SvgjsG11572" featureKey="ghXSps-0" transform="matrix(0.3999981079191062,0,0,0.3999981079191062,-0.00011048264694792857,-0.23619845243041607)" fill="#fff"><g xmlns="http://www.w3.org/2000/svg"><g><path d="M29.341,70.13c-2.253-2.253-5.824-2.729-7.733-0.823l-0.123,0.125l-0.002-0.002L1.275,89.637l-0.03-0.029    l-0.06,0.055c-1.906,1.914-1.427,5.48,0.826,7.738c2.255,2.253,5.824,2.728,7.733,0.824l0.04-0.041l0.03,0.033l20.21-20.211    l0.003,0.003l0.138-0.146C32.074,75.959,31.596,72.388,29.341,70.13z"/><path d="M88.843,11.749c-14.874-14.878-39-14.878-53.874,0c-14.878,14.876-14.878,38.994,0,53.875    c14.879,14.876,39,14.876,53.874,0C103.719,50.743,103.721,26.623,88.843,11.749z M40.224,60.373    c-12.001-12.006-12.001-31.525,0-43.525c11.996-12,31.522-12,43.52,0c11.997,12,11.997,31.52,0,43.521    C71.741,72.368,52.225,72.368,40.224,60.373z"/><path d="M82.458,33.894l-4.807-3.365V20.201c0-0.345-0.276-0.621-0.618-0.621h-4.752    c-0.342,0-0.617,0.276-0.617,0.621v6.136l-9.403-6.583c-0.217-0.15-0.498-0.15-0.714,0l-20.193,14.14    c-0.136,0.096-0.227,0.238-0.256,0.402c-0.028,0.16,0.01,0.326,0.103,0.462l2.75,3.926c0.121,0.173,0.312,0.266,0.508,0.266    c0.125,0,0.246-0.035,0.356-0.113l1.21-0.846v19.183c0,0.339,0.276,0.618,0.621,0.618h10.619c0.342,0,0.621-0.279,0.621-0.618    V42.857h8.042v14.315c0,0.339,0.278,0.618,0.62,0.618h10.538c0.344,0,0.618-0.279,0.618-0.618v-19.24l1.293,0.903    c0.281,0.199,0.668,0.129,0.864-0.152l2.753-3.926c0.09-0.136,0.13-0.304,0.1-0.462C82.685,34.132,82.594,33.989,82.458,33.894z"/></g></g></g><g id="SvgjsG11573" featureKey="anH1Ye-0" transform="matrix(1.494098134543154,0,0,1.494098134543154,57.430151165839284,-8.426712566898258)" fill="#fff"><path d="M3.66 13.48 l0 6.52 l-1.94 0 l0 -14.36 l9.94 0 l0 1.72 l-8 0 l0 4.4 l7.04 0 l0 1.72 l-7.04 0 z M15.52 13.92 l0 6.08 l-1.76 0 l0 -10.46 l1.66 0 l0 1.74 l0.04 0 c0.7 -1.22 1.62 -2.04 2.94 -2.04 c0.22 0 0.32 0.02 0.46 0.06 l0 1.82 l-0.66 0 c-1.64 0 -2.68 1.28 -2.68 2.8 z M27.300000000000004 16.72 l1.76 0 c-0.06 0.5 -0.54 1.98 -1.86 2.86 c-0.48 0.32 -1.16 0.72 -2.84 0.72 c-2.94 0 -4.68 -2.22 -4.68 -5.24 c0 -3.24 1.56 -5.82 5.02 -5.82 c3.02 0 4.5 2.4 4.5 6.1 l-7.64 0 c0 2.18 1.02 3.44 3.04 3.44 c1.66 0 2.64 -1.28 2.7 -2.06 z M21.560000000000002 13.940000000000001 l5.82 0 c-0.1 -1.62 -0.78 -3.12 -2.92 -3.12 c-1.62 0 -2.9 1.5 -2.9 3.12 z M38.42 16.72 l1.76 0 c-0.06 0.5 -0.54 1.98 -1.86 2.86 c-0.48 0.32 -1.16 0.72 -2.84 0.72 c-2.94 0 -4.68 -2.22 -4.68 -5.24 c0 -3.24 1.56 -5.82 5.02 -5.82 c3.02 0 4.5 2.4 4.5 6.1 l-7.64 0 c0 2.18 1.02 3.44 3.04 3.44 c1.66 0 2.64 -1.28 2.7 -2.06 z M32.68000000000001 13.940000000000001 l5.82 0 c-0.1 -1.62 -0.78 -3.12 -2.92 -3.12 c-1.62 0 -2.9 1.5 -2.9 3.12 z M50.940000000000005 12.879999999999999 l0 7.12 l-1.76 0 l0 -6.84 c0 -1.42 -0.4 -2.34 -2.08 -2.34 c-1.44 0 -2.92 0.84 -2.92 3.48 l0 5.7 l-1.76 0 l0 -14.36 l1.76 0 l0 5.3 l0.04 0 c0.5 -0.66 1.38 -1.7 3.06 -1.7 c1.62 0 3.66 0.66 3.66 3.64 z M52.94000000000001 14.76 c0 -2.7 1.52 -5.52 4.86 -5.52 s4.86 2.82 4.86 5.52 s-1.52 5.52 -4.86 5.52 s-4.86 -2.82 -4.86 -5.52 z M54.76000000000001 14.76 c0 1.4 0.52 4 3.04 4 s3.04 -2.6 3.04 -4 s-0.52 -4 -3.04 -4 s-3.04 2.6 -3.04 4 z M66.46000000000001 5.640000000000001 l0 14.36 l-1.76 0 l0 -14.36 l1.76 0 z M77.78000000000002 5.640000000000001 l0 14.36 l-1.66 0 l0 -1.44 l-0.04 0 c-0.76 1.42 -1.96 1.74 -2.98 1.74 c-3.56 0 -4.6 -3.34 -4.6 -5.84 c0 -2.94 1.58 -5.22 4.36 -5.22 c1.9 0 2.7 1.18 3.12 1.78 l0.04 -0.14 l0 -5.24 l1.76 0 z M70.32000000000001 14.74 c0 2.3 0.9 4.04 2.82 4.04 c1.12 0 2.86 -0.74 2.86 -3.52 c0 -1.7 -0.28 -4.44 -2.82 -4.44 c-2.72 0 -2.86 2.58 -2.86 3.92 z M82.58000000000001 13.48 l0 6.52 l-1.94 0 l0 -14.36 l9.94 0 l0 1.72 l-8 0 l0 4.4 l7.04 0 l0 1.72 l-7.04 0 z M94.24000000000001 9.54 l0 10.46 l-1.76 0 l0 -10.46 l1.76 0 z M94.24000000000001 7.640000000000001 l-1.76 0 l0 -2 l1.76 0 l0 2 z M105.4 12.879999999999999 l0 7.12 l-1.76 0 l0 -6.44 c0 -1.82 -0.52 -2.74 -2.24 -2.74 c-1 0 -2.76 0.64 -2.76 3.48 l0 5.7 l-1.76 0 l0 -10.46 l1.66 0 l0 1.48 l0.04 0 c0.38 -0.56 1.36 -1.78 3.16 -1.78 c1.62 0 3.66 0.66 3.66 3.64 z M116.68000000000002 5.640000000000001 l0 14.36 l-1.66 0 l0 -1.44 l-0.04 0 c-0.76 1.42 -1.96 1.74 -2.98 1.74 c-3.56 0 -4.6 -3.34 -4.6 -5.84 c0 -2.94 1.58 -5.22 4.36 -5.22 c1.9 0 2.7 1.18 3.12 1.78 l0.04 -0.14 l0 -5.24 l1.76 0 z M109.22000000000001 14.74 c0 2.3 0.9 4.04 2.82 4.04 c1.12 0 2.86 -0.74 2.86 -3.52 c0 -1.7 -0.28 -4.44 -2.82 -4.44 c-2.72 0 -2.86 2.58 -2.86 3.92 z M126.24000000000002 16.72 l1.76 0 c-0.06 0.5 -0.54 1.98 -1.86 2.86 c-0.48 0.32 -1.16 0.72 -2.84 0.72 c-2.94 0 -4.68 -2.22 -4.68 -5.24 c0 -3.24 1.56 -5.82 5.02 -5.82 c3.02 0 4.5 2.4 4.5 6.1 l-7.64 0 c0 2.18 1.02 3.44 3.04 3.44 c1.66 0 2.64 -1.28 2.7 -2.06 z M120.50000000000003 13.940000000000001 l5.82 0 c-0.1 -1.62 -0.78 -3.12 -2.92 -3.12 c-1.62 0 -2.9 1.5 -2.9 3.12 z M132.24000000000004 13.92 l0 6.08 l-1.76 0 l0 -10.46 l1.66 0 l0 1.74 l0.04 0 c0.7 -1.22 1.62 -2.04 2.94 -2.04 c0.22 0 0.32 0.02 0.46 0.06 l0 1.82 l-0.66 0 c-1.64 0 -2.68 1.28 -2.68 2.8 z"/></g><g id="SvgjsG11574" featureKey="XxVAgm-0" transform="matrix(0.5539475716719753,0,0,0.5539475716719753,59.335262755507955,28.78710397864543)" fill="#fff"><path d="M8.36 12.280000000000001 c1.68 0.4 2.98 1.84 2.98 3.68 c0 2.5 -1.6 4.04 -5.08 4.04 l-5.06 0 l0 -14 l4.96 0 c2.82 0 4.22 1.6 4.22 3.44 c0 1.4 -0.84 2.38 -2.02 2.84 z M5.98 7.9399999999999995 l-2.58 0 l0 3.66 l2.58 0 c1.44 0 2.22 -0.76 2.22 -1.84 c0 -1.14 -0.78 -1.82 -2.22 -1.82 z M6.16 18.06 c2.06 0 2.98 -0.84 2.98 -2.34 c0 -1.28 -0.92 -2.32 -2.98 -2.32 l-2.76 0 l0 4.66 l2.76 0 z M32.832 6 l2.2 0 l0 8.92 c0 3.42 -2.34 5.38 -5.22 5.38 s-5.22 -1.96 -5.22 -5.38 l0 -8.92 l2.2 0 l0 8.92 c0 2.38 1.46 3.3 3.02 3.3 s3.02 -0.92 3.02 -3.3 l0 -8.92 z M60.904 6 l-5.26 7.76 l0 6.24 l-2.2 0 l0 -6.24 l-5.26 -7.76 l2.5 0 l3.86 5.76 l3.86 -5.76 l2.5 0 z M93.608 6 l0 14 l-2.2 0 l0 -14 l2.2 0 z M116.6 6 l0 2.04 l-3.72 0 l0 11.96 l-2.2 0 l0 -11.96 l-3.72 0 l0 -2.04 l9.64 0 z M130.71200000000002 20.1 c-0.76 0 -1.26 -0.5 -1.26 -1.26 s0.5 -1.26 1.26 -1.26 s1.26 0.5 1.26 1.26 s-0.5 1.26 -1.26 1.26 z M169.476 5.800000000000001 c3.76 0 7.2 2.96 7.2 7.2 s-3.44 7.2 -7.2 7.2 s-7.2 -2.96 -7.2 -7.2 s3.44 -7.2 7.2 -7.2 z M169.476 18.12 c2.58 0 4.92 -2.12 4.92 -5.12 s-2.34 -5.12 -4.92 -5.12 s-4.92 2.12 -4.92 5.12 s2.34 5.12 4.92 5.12 z M208.888 6 l-4.56 14 l-1.52 0 l-3.6 -10.04 l-3.6 10.04 l-1.52 0 l-4.56 -14 l2.3 0 l3.1 9.6 l3.46 -9.6 l1.64 0 l3.46 9.6 l3.1 -9.6 l2.3 0 z M231.54 6 l2.2 0 l0 14 l-1.68 0 l-7.82 -9.98 l0 9.98 l-2.2 0 l0 -14 l1.7 0 l7.8 10 l0 -10 z M267.044 6 l0 14 l-2.2 0 l0 -14 l2.2 0 z M290.036 6 l0 2.04 l-3.72 0 l0 11.96 l-2.2 0 l0 -11.96 l-3.72 0 l0 -2.04 l9.64 0 z"/></g>
			</g>
		</svg>
	