<?xml version="1.0" standalone="no"?>
<!DOCTYPE svg PUBLIC "-//W3C//DTD SVG 20010904//EN"
 "http://www.w3.org/TR/2001/REC-SVG-20010904/DTD/svg10.dtd">
<svg version="1.0" xmlns="http://www.w3.org/2000/svg"
 width="64.000000pt" height="64.000000pt" viewBox="0 0 64.000000 64.000000"
 preserveAspectRatio="xMidYMid meet">

<g transform="translate(0.000000,64.000000) scale(0.100000,-0.100000)"
fill="#835c64" stroke="none">
<path d="M313 630 c-48 -11 -119 -56 -147 -93 -69 -90 -74 -220 -12 -308 l23
-34 -85 -87 c-47 -48 -83 -91 -79 -95 4 -4 47 32 95 79 l87 85 34 -23 c64 -45
152 -56 232 -29 101 35 172 133 173 240 1 83 -24 143 -83 198 -68 64 -152 88
-238 67z m157 -37 c125 -51 180 -212 114 -333 -95 -175 -336 -170 -430 10 -13
24 -19 57 -19 106 0 61 4 77 30 120 32 51 112 109 164 117 37 6 100 -3 141
-20z"/>
<path d="M240 463 c0 -3 7 -15 17 -25 15 -17 15 -19 -2 -38 -24 -26 -11 -39
15 -15 20 18 21 18 43 -3 30 -29 44 -15 15 15 -21 22 -21 23 -3 43 24 26 11
39 -15 15 -19 -17 -21 -17 -38 -2 -19 18 -32 22 -32 10z"/>
<path d="M400 462 c0 -5 9 -17 20 -27 l20 -18 -21 -23 c-11 -12 -16 -25 -11
-28 5 -3 17 3 27 14 18 20 18 20 41 -1 12 -11 25 -16 28 -11 3 5 -1 15 -9 22
-19 16 -19 29 2 52 21 24 9 36 -15 15 -23 -21 -36 -21 -52 -2 -14 16 -30 20
-30 7z"/>
<path d="M298 273 c-55 -22 -37 -34 22 -15 50 16 82 13 143 -13 10 -4 17 -3
17 4 0 17 -63 41 -107 40 -21 0 -55 -7 -75 -16z"/>
</g>
</svg>
